<?xml version="1.0" standalone="no"?>
<!DOCTYPE svg PUBLIC "-//W3C//DTD SVG 20010904//EN"
 "http://www.w3.org/TR/2001/REC-SVG-20010904/DTD/svg10.dtd">
<svg version="1.0" xmlns="http://www.w3.org/2000/svg"
 width="512.000000pt" height="512.000000pt" viewBox="0 0 512.000000 512.000000"
 preserveAspectRatio="xMidYMid meet">
<metadata>
Created by potrace 1.14, written by Peter Selinger 2001-2017
</metadata>
<g transform="translate(0.000000,512.000000) scale(0.100000,-0.100000)"
fill="#000000" stroke="none">
<path d="M3345 4811 c-49 -12 -83 -40 -106 -87 -18 -39 -21 -58 -17 -144 3
-93 6 -101 34 -137 17 -21 42 -44 55 -50 18 -9 114 -13 363 -13 323 0 340 1
372 20 18 12 42 40 54 65 19 39 21 59 18 148 -3 88 -6 107 -26 135 -48 66 -53
67 -402 69 -173 1 -329 -2 -345 -6z"/>
<path d="M2500 4603 c-46 -17 -2120 -1221 -2147 -1246 -40 -37 -57 -86 -50
-143 7 -62 111 -239 159 -271 45 -31 104 -39 154 -23 21 7 463 258 983 559
520 300 953 545 961 545 9 0 447 -249 974 -553 1036 -598 1001 -581 1090 -547
56 21 73 41 140 161 44 78 56 109 56 143 0 54 -19 99 -56 133 -16 15 -175 111
-354 214 -179 103 -356 207 -395 230 -38 23 -92 54 -120 70 -27 15 -304 174
-615 353 -311 180 -589 339 -619 354 -52 27 -121 36 -161 21z"/>
<path d="M2324 3744 c-120 -69 -242 -139 -271 -156 -65 -37 -77 -51 -77 -95 0
-42 31 -73 73 -73 16 0 124 56 269 139 l242 140 242 -140 c145 -83 253 -139
269 -139 42 0 73 31 73 73 0 44 -12 58 -77 95 -29 17 -151 87 -271 156 -120
69 -227 126 -236 126 -9 0 -115 -57 -236 -126z"/>
<path d="M2475 3486 c-111 -28 -202 -102 -252 -204 -25 -51 -28 -68 -28 -157
0 -93 2 -105 33 -167 38 -78 100 -138 182 -177 47 -22 68 -26 150 -26 82 0
103 4 152 27 76 35 138 95 179 170 27 53 34 76 37 144 7 135 -39 242 -139 321
-82 64 -217 95 -314 69z"/>
<path d="M950 2880 c-30 -30 -27 -83 6 -109 26 -20 37 -21 419 -21 382 0 393
1 419 21 33 26 35 75 6 107 -21 22 -22 22 -425 22 -392 0 -406 -1 -425 -20z"/>
<path d="M3320 2880 c-28 -28 -26 -81 3 -108 23 -22 26 -22 421 -22 l397 0 24
25 c32 31 33 74 2 103 -23 22 -26 22 -425 22 -389 0 -403 -1 -422 -20z"/>
<path d="M879 2581 c-37 -37 -37 -65 1 -103 l30 -30 0 -124 0 -124 195 0 195
0 0 125 0 125 75 0 75 0 0 -125 0 -124 195 -3 195 -3 0 127 0 126 30 30 c38
38 38 66 1 103 l-29 29 -467 0 -467 0 -29 -29z"/>
<path d="M2140 2599 c-14 -6 -36 -20 -48 -32 -54 -50 -52 -9 -52 -949 l-1
-873 -43 -26 c-62 -38 -96 -99 -103 -188 l-6 -71 -143 0 -144 0 0 113 0 113
36 13 c53 19 118 88 137 146 39 113 14 211 -78 300 -39 39 -67 76 -79 107 -22
59 -84 124 -144 151 -63 27 -176 34 -234 14 -44 -14 -45 -14 -83 14 -46 35
-93 49 -160 49 -53 0 -126 -28 -160 -60 -19 -18 -24 -18 -60 -5 -55 19 -142
18 -206 -2 -67 -21 -159 -108 -179 -168 -8 -25 -36 -62 -75 -100 -69 -67 -95
-124 -95 -207 0 -93 71 -198 157 -234 l33 -14 0 -114 0 -113 -51 -5 c-33 -4
-58 -12 -71 -26 -28 -28 -27 -81 3 -104 20 -17 139 -18 2266 -18 1445 0 2251
3 2263 10 10 5 22 23 28 39 19 55 -26 101 -100 101 l-38 0 0 113 0 113 36 13
c53 19 118 88 137 146 39 113 14 211 -78 300 -39 39 -67 76 -79 107 -21 57
-81 119 -144 149 -60 29 -190 38 -242 16 -32 -14 -36 -14 -67 10 -94 72 -248
68 -328 -7 -19 -18 -24 -18 -60 -5 -55 19 -142 18 -206 -2 -67 -21 -159 -108
-179 -168 -8 -25 -36 -62 -75 -100 -69 -67 -95 -124 -95 -207 0 -92 67 -193
156 -236 l34 -16 0 -113 0 -113 -145 0 -145 0 0 59 c0 81 -39 155 -102 196
l-47 30 0 876 -1 876 -22 33 c-13 18 -36 43 -51 54 -28 20 -40 21 -435 23
-257 1 -416 -2 -432 -8z m690 -1129 c27 -27 29 -144 3 -172 -22 -24 -77 -24
-103 2 -29 29 -28 127 1 164 25 32 70 35 99 6z"/>
<path d="M3264 2598 c-22 -10 -44 -47 -44 -74 0 -9 14 -29 30 -46 l30 -30 0
-124 0 -124 195 0 195 0 0 125 0 125 75 0 75 0 0 -125 0 -124 195 -3 195 -3 0
128 c0 126 0 128 27 151 36 32 36 81 -1 113 l-27 23 -462 -1 c-296 0 -470 -4
-483 -11z"/>
<path d="M910 1923 c0 -126 0 -127 -27 -149 -36 -28 -38 -88 -4 -115 22 -18
49 -19 493 -19 281 0 477 4 487 10 46 24 47 105 1 130 -19 10 -20 20 -20 140
l0 130 -195 0 -195 0 0 -130 0 -130 -75 0 -75 0 0 130 0 130 -195 0 -195 0 0
-127z"/>
<path d="M3280 1924 l0 -126 -30 -28 c-37 -35 -39 -72 -5 -105 l24 -25 471 0
c288 0 478 4 490 10 29 16 42 67 25 100 -8 15 -21 30 -30 33 -12 5 -15 29 -15
137 l0 130 -195 0 -195 0 0 -130 0 -130 -75 0 -75 0 0 130 0 130 -195 0 -195
0 0 -126z"/>
</g>
</svg>
